{
	"asset":{
		"generator":"Khronos glTF Blender I/O v4.2.60",
		"version":"2.0"
	},
	"extensionsUsed":[
		"KHR_materials_emissive_strength"
	],
	"scene":0,
	"scenes":[
		{
			"name":"Scene",
			"nodes":[
				0,
				1,
				2,
				3,
				4,
				5,
				6,
				7,
				8,
				9
			]
		}
	],
	"nodes":[
		{
			"mesh":0,
			"name":"Sphere",
			"scale":[
				0.26260584592819214,
				0.26260584592819214,
				0.26260584592819214
			],
			"translation":[
				0,
				0.5749422311782837,
				0
			]
		},
		{
			"mesh":1,
			"name":"Sphere.001",
			"scale":[
				0.5200222134590149,
				0.5200222134590149,
				0.5200222134590149
			],
			"translation":[
				0,
				0.5749422311782837,
				0
			]
		},
		{
			"mesh":2,
			"name":"Sphere.002",
			"scale":[
				0.26260584592819214,
				0.26260584592819214,
				0.26260584592819214
			],
			"translation":[
				0,
				0.8416107892990112,
				-2.5299861431121826
			]
		},
		{
			"mesh":3,
			"name":"Sphere.003",
			"scale":[
				0.5200222134590149,
				0.5200222134590149,
				0.5200222134590149
			],
			"translation":[
				0,
				0.8416107892990112,
				-2.5299861431121826
			]
		},
		{
			"mesh":4,
			"name":"Sphere.004",
			"scale":[
				0.26260584592819214,
				0.26260584592819214,
				0.26260584592819214
			],
			"translation":[
				0,
				3.240457534790039,
				-1.7650878429412842
			]
		},
		{
			"mesh":5,
			"name":"Sphere.005",
			"scale":[
				0.5200222134590149,
				0.5200222134590149,
				0.5200222134590149
			],
			"translation":[
				0,
				3.240457534790039,
				-1.7650878429412842
			]
		},
		{
			"mesh":6,
			"name":"Cylinder",
			"rotation":[
				-0.6612043976783752,
				0,
				0,
				0.7502058148384094
			],
			"scale":[
				0.07745462656021118,
				0.6497316956520081,
				0.07745462656021118
			],
			"translation":[
				0,
				0.7021232843399048,
				-1.1246198415756226
			]
		},
		{
			"mesh":7,
			"name":"Cylinder.001",
			"rotation":[
				-0.6612043976783752,
				0,
				0,
				0.7502058148384094
			],
			"scale":[
				0.007760642096400261,
				0.507480800151825,
				0.007760641630738974
			],
			"translation":[
				0,
				0.7021232843399048,
				-1.1246198415756226
			]
		},
		{
			"mesh":8,
			"name":"Cylinder.002",
			"rotation":[
				-0.9872506260871887,
				0,
				0,
				0.15917350351810455
			],
			"scale":[
				0.07745462656021118,
				0.6497316956520081,
				0.07745462656021118
			],
			"translation":[
				-0.024439692497253418,
				2.1557977199554443,
				-2.1165003776550293
			]
		},
		{
			"mesh":9,
			"name":"Cylinder.003",
			"rotation":[
				-0.9872506260871887,
				0,
				0,
				0.15917350351810455
			],
			"scale":[
				0.007760642096400261,
				0.5074807405471802,
				0.007760641165077686
			],
			"translation":[
				-0.024439692497253418,
				2.1557977199554443,
				-2.1165003776550293
			]
		}
	],
	"materials":[
		{
			"doubleSided":true,
			"emissiveFactor":[
				0.25129565596580505,
				0.0985569953918457,
				1
			],
			"extensions":{
				"KHR_materials_emissive_strength":{
					"emissiveStrength":100
				}
			},
			"name":"Material.002",
			"pbrMetallicRoughness":{
				"baseColorFactor":[
					0,
					0,
					0,
					1
				]
			}
		},
		{
			"doubleSided":true,
			"name":"Material.001"
		},
		{
			"doubleSided":true,
			"name":"Material.005"
		},
		{
			"doubleSided":true,
			"emissiveFactor":[
				0.44089341163635254,
				0.23308053612709045,
				1
			],
			"extensions":{
				"KHR_materials_emissive_strength":{
					"emissiveStrength":20
				}
			},
			"name":"Material.004",
			"pbrMetallicRoughness":{
				"baseColorFactor":[
					0,
					0,
					0,
					1
				]
			}
		}
	],
	"meshes":[
		{
			"name":"Sphere.001",
			"primitives":[
				{
					"attributes":{
						"POSITION":0,
						"NORMAL":1,
						"TEXCOORD_0":2
					},
					"indices":3,
					"material":0
				}
			]
		},
		{
			"name":"Sphere.002",
			"primitives":[
				{
					"attributes":{
						"POSITION":4,
						"NORMAL":5,
						"TEXCOORD_0":6
					},
					"indices":3,
					"material":1
				}
			]
		},
		{
			"name":"Sphere.003",
			"primitives":[
				{
					"attributes":{
						"POSITION":7,
						"NORMAL":8,
						"TEXCOORD_0":9
					},
					"indices":3,
					"material":0
				}
			]
		},
		{
			"name":"Sphere.004",
			"primitives":[
				{
					"attributes":{
						"POSITION":10,
						"NORMAL":11,
						"TEXCOORD_0":12
					},
					"indices":3,
					"material":1
				}
			]
		},
		{
			"name":"Sphere.005",
			"primitives":[
				{
					"attributes":{
						"POSITION":13,
						"NORMAL":14,
						"TEXCOORD_0":15
					},
					"indices":3,
					"material":0
				}
			]
		},
		{
			"name":"Sphere.006",
			"primitives":[
				{
					"attributes":{
						"POSITION":16,
						"NORMAL":17,
						"TEXCOORD_0":18
					},
					"indices":3,
					"material":1
				}
			]
		},
		{
			"name":"Cylinder.001",
			"primitives":[
				{
					"attributes":{
						"POSITION":19,
						"NORMAL":20,
						"TEXCOORD_0":21
					},
					"indices":22,
					"material":2
				}
			]
		},
		{
			"name":"Cylinder.002",
			"primitives":[
				{
					"attributes":{
						"POSITION":23,
						"NORMAL":24,
						"TEXCOORD_0":25
					},
					"indices":26,
					"material":3
				}
			]
		},
		{
			"name":"Cylinder.003",
			"primitives":[
				{
					"attributes":{
						"POSITION":27,
						"NORMAL":28,
						"TEXCOORD_0":29
					},
					"indices":22,
					"material":2
				}
			]
		},
		{
			"name":"Cylinder.004",
			"primitives":[
				{
					"attributes":{
						"POSITION":30,
						"NORMAL":31,
						"TEXCOORD_0":32
					},
					"indices":26,
					"material":3
				}
			]
		}
	],
	"accessors":[
		{
			"bufferView":0,
			"componentType":5126,
			"count":423,
			"max":[
				0.9999998211860657,
				1,
				0.9999997019767761
			],
			"min":[
				-0.999999463558197,
				-1,
				-0.9999994039535522
			],
			"type":"VEC3"
		},
		{
			"bufferView":1,
			"componentType":5126,
			"count":423,
			"type":"VEC3"
		},
		{
			"bufferView":2,
			"componentType":5126,
			"count":423,
			"type":"VEC2"
		},
		{
			"bufferView":3,
			"componentType":5123,
			"count":2160,
			"type":"SCALAR"
		},
		{
			"bufferView":4,
			"componentType":5126,
			"count":423,
			"max":[
				0.9999998211860657,
				1,
				0.9999997019767761
			],
			"min":[
				-0.999999463558197,
				-1,
				-0.9999994039535522
			],
			"type":"VEC3"
		},
		{
			"bufferView":5,
			"componentType":5126,
			"count":423,
			"type":"VEC3"
		},
		{
			"bufferView":6,
			"componentType":5126,
			"count":423,
			"type":"VEC2"
		},
		{
			"bufferView":7,
			"componentType":5126,
			"count":423,
			"max":[
				0.9999998211860657,
				1,
				0.9999997019767761
			],
			"min":[
				-0.999999463558197,
				-1,
				-0.9999994039535522
			],
			"type":"VEC3"
		},
		{
			"bufferView":8,
			"componentType":5126,
			"count":423,
			"type":"VEC3"
		},
		{
			"bufferView":9,
			"componentType":5126,
			"count":423,
			"type":"VEC2"
		},
		{
			"bufferView":10,
			"componentType":5126,
			"count":423,
			"max":[
				0.9999998211860657,
				1,
				0.9999997019767761
			],
			"min":[
				-0.999999463558197,
				-1,
				-0.9999994039535522
			],
			"type":"VEC3"
		},
		{
			"bufferView":11,
			"componentType":5126,
			"count":423,
			"type":"VEC3"
		},
		{
			"bufferView":12,
			"componentType":5126,
			"count":423,
			"type":"VEC2"
		},
		{
			"bufferView":13,
			"componentType":5126,
			"count":423,
			"max":[
				0.9999998211860657,
				1,
				0.9999997019767761
			],
			"min":[
				-0.999999463558197,
				-1,
				-0.9999994039535522
			],
			"type":"VEC3"
		},
		{
			"bufferView":14,
			"componentType":5126,
			"count":423,
			"type":"VEC3"
		},
		{
			"bufferView":15,
			"componentType":5126,
			"count":423,
			"type":"VEC2"
		},
		{
			"bufferView":16,
			"componentType":5126,
			"count":423,
			"max":[
				0.9999998211860657,
				1,
				0.9999997019767761
			],
			"min":[
				-0.999999463558197,
				-1,
				-0.9999994039535522
			],
			"type":"VEC3"
		},
		{
			"bufferView":17,
			"componentType":5126,
			"count":423,
			"type":"VEC3"
		},
		{
			"bufferView":18,
			"componentType":5126,
			"count":423,
			"type":"VEC2"
		},
		{
			"bufferView":19,
			"componentType":5126,
			"count":163,
			"max":[
				1,
				1.4412713050842285,
				1
			],
			"min":[
				-1,
				-1,
				-1
			],
			"type":"VEC3"
		},
		{
			"bufferView":20,
			"componentType":5126,
			"count":163,
			"type":"VEC3"
		},
		{
			"bufferView":21,
			"componentType":5126,
			"count":163,
			"type":"VEC2"
		},
		{
			"bufferView":22,
			"componentType":5123,
			"count":564,
			"type":"SCALAR"
		},
		{
			"bufferView":23,
			"componentType":5126,
			"count":256,
			"max":[
				1,
				1.4412713050842285,
				1
			],
			"min":[
				-1,
				-1,
				-1
			],
			"type":"VEC3"
		},
		{
			"bufferView":24,
			"componentType":5126,
			"count":256,
			"type":"VEC3"
		},
		{
			"bufferView":25,
			"componentType":5126,
			"count":256,
			"type":"VEC2"
		},
		{
			"bufferView":26,
			"componentType":5123,
			"count":564,
			"type":"SCALAR"
		},
		{
			"bufferView":27,
			"componentType":5126,
			"count":163,
			"max":[
				1,
				1.4412713050842285,
				1
			],
			"min":[
				-1,
				-1,
				-1
			],
			"type":"VEC3"
		},
		{
			"bufferView":28,
			"componentType":5126,
			"count":163,
			"type":"VEC3"
		},
		{
			"bufferView":29,
			"componentType":5126,
			"count":163,
			"type":"VEC2"
		},
		{
			"bufferView":30,
			"componentType":5126,
			"count":256,
			"max":[
				1,
				1.4412713050842285,
				1
			],
			"min":[
				-1,
				-1,
				-1
			],
			"type":"VEC3"
		},
		{
			"bufferView":31,
			"componentType":5126,
			"count":256,
			"type":"VEC3"
		},
		{
			"bufferView":32,
			"componentType":5126,
			"count":256,
			"type":"VEC2"
		}
	],
	"bufferViews":[
		{
			"buffer":0,
			"byteLength":5076,
			"byteOffset":0,
			"target":34962
		},
		{
			"buffer":0,
			"byteLength":5076,
			"byteOffset":5076,
			"target":34962
		},
		{
			"buffer":0,
			"byteLength":3384,
			"byteOffset":10152,
			"target":34962
		},
		{
			"buffer":0,
			"byteLength":4320,
			"byteOffset":13536,
			"target":34963
		},
		{
			"buffer":0,
			"byteLength":5076,
			"byteOffset":17856,
			"target":34962
		},
		{
			"buffer":0,
			"byteLength":5076,
			"byteOffset":22932,
			"target":34962
		},
		{
			"buffer":0,
			"byteLength":3384,
			"byteOffset":28008,
			"target":34962
		},
		{
			"buffer":0,
			"byteLength":5076,
			"byteOffset":31392,
			"target":34962
		},
		{
			"buffer":0,
			"byteLength":5076,
			"byteOffset":36468,
			"target":34962
		},
		{
			"buffer":0,
			"byteLength":3384,
			"byteOffset":41544,
			"target":34962
		},
		{
			"buffer":0,
			"byteLength":5076,
			"byteOffset":44928,
			"target":34962
		},
		{
			"buffer":0,
			"byteLength":5076,
			"byteOffset":50004,
			"target":34962
		},
		{
			"buffer":0,
			"byteLength":3384,
			"byteOffset":55080,
			"target":34962
		},
		{
			"buffer":0,
			"byteLength":5076,
			"byteOffset":58464,
			"target":34962
		},
		{
			"buffer":0,
			"byteLength":5076,
			"byteOffset":63540,
			"target":34962
		},
		{
			"buffer":0,
			"byteLength":3384,
			"byteOffset":68616,
			"target":34962
		},
		{
			"buffer":0,
			"byteLength":5076,
			"byteOffset":72000,
			"target":34962
		},
		{
			"buffer":0,
			"byteLength":5076,
			"byteOffset":77076,
			"target":34962
		},
		{
			"buffer":0,
			"byteLength":3384,
			"byteOffset":82152,
			"target":34962
		},
		{
			"buffer":0,
			"byteLength":1956,
			"byteOffset":85536,
			"target":34962
		},
		{
			"buffer":0,
			"byteLength":1956,
			"byteOffset":87492,
			"target":34962
		},
		{
			"buffer":0,
			"byteLength":1304,
			"byteOffset":89448,
			"target":34962
		},
		{
			"buffer":0,
			"byteLength":1128,
			"byteOffset":90752,
			"target":34963
		},
		{
			"buffer":0,
			"byteLength":3072,
			"byteOffset":91880,
			"target":34962
		},
		{
			"buffer":0,
			"byteLength":3072,
			"byteOffset":94952,
			"target":34962
		},
		{
			"buffer":0,
			"byteLength":2048,
			"byteOffset":98024,
			"target":34962
		},
		{
			"buffer":0,
			"byteLength":1128,
			"byteOffset":100072,
			"target":34963
		},
		{
			"buffer":0,
			"byteLength":1956,
			"byteOffset":101200,
			"target":34962
		},
		{
			"buffer":0,
			"byteLength":1956,
			"byteOffset":103156,
			"target":34962
		},
		{
			"buffer":0,
			"byteLength":1304,
			"byteOffset":105112,
			"target":34962
		},
		{
			"buffer":0,
			"byteLength":3072,
			"byteOffset":106416,
			"target":34962
		},
		{
			"buffer":0,
			"byteLength":3072,
			"byteOffset":109488,
			"target":34962
		},
		{
			"buffer":0,
			"byteLength":2048,
			"byteOffset":112560,
			"target":34962
		}
	],
	"buffers":[
		{
			"byteLength":114608,
			"uri":"blockchainParticles1.bin"
		}
	]
}
